<svg xmlns="http://www.w3.org/2000/svg" xmlns:xlink="http://www.w3.org/1999/xlink" width="150" zoomAndPan="magnify" viewBox="0 0 112.5 56.249996" height="75" preserveAspectRatio="xMidYMid meet" version="1.0"><defs><g/></defs><g fill="#000000" fill-opacity="1"><g transform="translate(42.878198, 43.963982)"><g><path d="M 5.578125 -34.390625 C 7.609375 -35.234375 9.5625 -35.65625 11.4375 -35.65625 C 13 -35.65625 14.609375 -35.078125 16.265625 -33.921875 C 17.171875 -33.296875 18.1875 -32.078125 19.3125 -30.265625 C 20.0625 -29.015625 21.015625 -26.75 22.171875 -23.46875 L 27.875 -7.265625 C 29.1875 -3.640625 30.519531 -0.757812 31.875 1.375 C 33.238281 3.519531 34.484375 5.128906 35.609375 6.203125 C 36.734375 7.285156 37.90625 8.046875 39.125 8.484375 C 40.34375 8.921875 41.347656 9.140625 42.140625 9.140625 C 42.941406 9.140625 43.65625 9.078125 44.28125 8.953125 L 44.328125 9.421875 C 42.828125 9.921875 41.359375 10.171875 39.921875 10.171875 C 38.484375 10.171875 37.046875 9.800781 35.609375 9.0625 C 34.171875 8.332031 32.828125 7.3125 31.578125 6 C 28.890625 3.28125 26.609375 -0.859375 24.734375 -6.421875 L 22.921875 -11.765625 L 10.078125 -11.765625 L 6.84375 -3.421875 C 6.6875 -3.046875 6.609375 -2.671875 6.609375 -2.296875 C 6.609375 -1.921875 6.769531 -1.519531 7.09375 -1.09375 C 7.425781 -0.675781 7.9375 -0.46875 8.625 -0.46875 L 9 -0.46875 L 9 0 L -0.421875 0 L -0.421875 -0.46875 L 0 -0.46875 C 0.75 -0.46875 1.484375 -0.691406 2.203125 -1.140625 C 2.921875 -1.597656 3.515625 -2.28125 3.984375 -3.1875 L 15.609375 -31.015625 C 13.921875 -33.421875 11.828125 -34.625 9.328125 -34.625 C 8.203125 -34.625 7 -34.390625 5.71875 -33.921875 Z M 10.59375 -13.171875 L 22.453125 -13.171875 L 18.75 -24.078125 C 18.03125 -26.171875 17.375 -27.8125 16.78125 -29 Z M 10.59375 -13.171875 "/></g></g></g><g fill="#000000" fill-opacity="1"><g transform="translate(7.045932, 49.505297)"><g><path d="M 36.78125 -42.515625 C 37.851562 -43.242188 39.128906 -43.8125 40.609375 -44.21875 C 42.097656 -44.632812 43.300781 -44.84375 44.21875 -44.84375 C 45.144531 -44.84375 45.734375 -44.84375 45.984375 -44.84375 L 45.984375 -44.375 C 44.492188 -44.3125 43.097656 -44.015625 41.796875 -43.484375 C 40.503906 -42.960938 39.4375 -42.363281 38.59375 -41.6875 C 37.757812 -41.007812 36.945312 -40.109375 36.15625 -38.984375 C 35.363281 -37.859375 34.753906 -36.898438 34.328125 -36.109375 C 33.898438 -35.316406 33.40625 -34.304688 32.84375 -33.078125 L 19.640625 -4.21875 C 18.472656 -1.65625 17.890625 -0.0234375 17.890625 0.671875 L 17.46875 0.671875 L 4.125 -29.75 C 3.6875 -30.757812 3.078125 -31.507812 2.296875 -32 C 1.523438 -32.5 0.742188 -32.75 -0.046875 -32.75 L -0.421875 -32.75 L -0.421875 -33.21875 L 10.25 -33.21875 L 10.25 -32.75 L 9.828125 -32.75 C 8.878906 -32.75 8.242188 -32.300781 7.921875 -31.40625 C 7.859375 -31.21875 7.828125 -31 7.828125 -30.75 C 7.828125 -30.5 7.90625 -30.179688 8.0625 -29.796875 L 17.984375 -4.9375 L 29.75 -33.078125 C 31.613281 -37.472656 33.957031 -40.617188 36.78125 -42.515625 Z M 36.78125 -42.515625 "/></g></g></g><path fill="#e1e1e1" d="M 29.765625 24.628906 L 66.734375 24.628906 C 67.152344 24.628906 67.546875 24.792969 67.839844 25.085938 C 68.132812 25.378906 68.300781 25.777344 68.300781 26.191406 L 68.300781 29.316406 C 68.300781 29.734375 68.132812 30.128906 67.839844 30.421875 C 67.546875 30.714844 67.152344 30.882812 66.734375 30.882812 L 29.765625 30.882812 C 28.902344 30.882812 28.203125 30.179688 28.203125 29.316406 L 28.203125 26.191406 C 28.203125 25.328125 28.902344 24.628906 29.765625 24.628906 Z M 29.765625 24.628906 " fill-opacity="1" fill-rule="nonzero"/><g fill="#000000" fill-opacity="1"><g transform="translate(31.258076, 28.926821)"><g><path d="M 2.046875 -2.78125 L 2.5625 -2.78125 L 1.546875 0 L 0.84375 0 L 0 -2.78125 L 0.53125 -2.78125 L 1.21875 -0.421875 Z M 2.046875 -2.78125 "/></g></g></g><g fill="#000000" fill-opacity="1"><g transform="translate(36.690751, 28.926821)"><g><path d="M -0.046875 0 L 1.140625 -2.78125 L 1.578125 -2.78125 L 2.71875 0 L 2.203125 0 L 1.953125 -0.640625 L 0.734375 -0.640625 L 0.484375 0 Z M 0.90625 -1.0625 L 1.78125 -1.0625 L 1.359375 -2.15625 Z M 0.90625 -1.0625 "/></g></g></g><g fill="#000000" fill-opacity="1"><g transform="translate(42.357987, 28.926821)"><g><path d="M 0.28125 0 L 0.28125 -2.78125 L 0.796875 -2.78125 L 0.796875 -0.453125 L 2.03125 -0.453125 L 2 0 Z M 0.28125 0 "/></g></g></g><g fill="#000000" fill-opacity="1"><g transform="translate(47.344993, 28.926821)"><g><path d="M 0.28125 0 L 0.28125 -2.78125 L 0.796875 -2.78125 L 0.796875 -0.453125 L 2.03125 -0.453125 L 2 0 Z M 0.28125 0 "/></g></g></g><g fill="#000000" fill-opacity="1"><g transform="translate(52.331999, 28.926821)"><g><path d="M 2.078125 -2.34375 L 0.78125 -2.34375 L 0.78125 -1.625 L 2.015625 -1.625 L 2.015625 -1.1875 L 0.78125 -1.1875 L 0.78125 -0.4375 L 2.125 -0.4375 L 2.078125 0 L 0.28125 0 L 0.28125 -2.78125 L 2.078125 -2.78125 Z M 2.078125 -2.34375 "/></g></g></g><g fill="#000000" fill-opacity="1"><g transform="translate(57.518386, 28.926821)"><g><path d="M 2.484375 -0.484375 L 2.59375 -0.09375 C 2.539062 -0.0507812 2.476562 -0.0195312 2.40625 0 C 2.332031 0.0195312 2.253906 0.03125 2.171875 0.03125 C 1.878906 0.03125 1.648438 -0.0976562 1.484375 -0.359375 L 1.078125 -0.96875 C 1.035156 -1.03125 0.988281 -1.070312 0.9375 -1.09375 C 0.894531 -1.125 0.847656 -1.140625 0.796875 -1.140625 L 0.78125 -1.140625 L 0.78125 0 L 0.28125 0 L 0.28125 -2.78125 L 1.15625 -2.78125 C 1.5 -2.78125 1.757812 -2.707031 1.9375 -2.5625 C 2.125 -2.414062 2.21875 -2.210938 2.21875 -1.953125 C 2.21875 -1.796875 2.179688 -1.660156 2.109375 -1.546875 C 2.046875 -1.441406 1.957031 -1.359375 1.84375 -1.296875 C 1.726562 -1.234375 1.59375 -1.191406 1.4375 -1.171875 C 1.519531 -1.128906 1.59375 -1.054688 1.65625 -0.953125 L 1.875 -0.640625 C 1.9375 -0.554688 1.988281 -0.5 2.03125 -0.46875 C 2.082031 -0.4375 2.148438 -0.421875 2.234375 -0.421875 C 2.328125 -0.421875 2.410156 -0.441406 2.484375 -0.484375 Z M 1.109375 -2.359375 L 0.78125 -2.359375 L 0.78125 -1.546875 L 1.09375 -1.546875 C 1.300781 -1.546875 1.457031 -1.578125 1.5625 -1.640625 C 1.664062 -1.703125 1.71875 -1.804688 1.71875 -1.953125 C 1.71875 -2.222656 1.515625 -2.359375 1.109375 -2.359375 Z M 1.109375 -2.359375 "/></g></g></g><g fill="#000000" fill-opacity="1"><g transform="translate(62.947153, 28.926821)"><g><path d="M 2.375 -2.78125 L 1.40625 -1.25 L 1.40625 0 L 0.890625 0 L 0.890625 -1.234375 L -0.109375 -2.78125 L 0.46875 -2.78125 L 1.171875 -1.6875 L 1.84375 -2.78125 Z M 2.375 -2.78125 "/></g></g></g></svg>