<svg xmlns="http://www.w3.org/2000/svg" xmlns:xlink="http://www.w3.org/1999/xlink" width="200" zoomAndPan="magnify" viewBox="0 0 150 63.749997" height="85" preserveAspectRatio="xMidYMid meet" version="1.0"><defs><clipPath id="213a69534a"><path d="M 0.292969 15.65625 L 47 15.65625 L 47 49.273438 L 0.292969 49.273438 Z M 0.292969 15.65625 " clip-rule="nonzero"/></clipPath><clipPath id="a4b5701c30"><path d="M 34 15.65625 L 81 15.65625 L 81 49.273438 L 34 49.273438 Z M 34 15.65625 " clip-rule="nonzero"/></clipPath><clipPath id="d94c088179"><path d="M 69 15.65625 L 116 15.65625 L 116 49.273438 L 69 49.273438 Z M 69 15.65625 " clip-rule="nonzero"/></clipPath><clipPath id="6838a82cbb"><path d="M 103 15.65625 L 149.707031 15.65625 L 149.707031 49.273438 L 103 49.273438 Z M 103 15.65625 " clip-rule="nonzero"/></clipPath></defs><g clip-path="url(#213a69534a)"><path fill="#314032" d="M 24.152344 15.65625 L 0.398438 15.65625 L 22.570312 32.4375 L 0.3125 49.273438 L 24.066406 49.273438 L 46.324219 32.4375 Z M 24.152344 15.65625 " fill-opacity="1" fill-rule="nonzero"/></g><g clip-path="url(#a4b5701c30)"><path fill="#314032" d="M 58.703125 15.65625 L 34.949219 15.65625 L 57.121094 32.4375 L 34.863281 49.273438 L 58.617188 49.273438 L 80.875 32.4375 Z M 58.703125 15.65625 " fill-opacity="1" fill-rule="nonzero"/></g><g clip-path="url(#d94c088179)"><path fill="#314032" d="M 92.964844 15.65625 L 69.210938 15.65625 L 91.382812 32.4375 L 69.125 49.273438 L 92.878906 49.273438 L 115.136719 32.4375 Z M 92.964844 15.65625 " fill-opacity="1" fill-rule="nonzero"/></g><g clip-path="url(#6838a82cbb)"><path fill="#314032" d="M 127.515625 15.65625 L 103.761719 15.65625 L 125.933594 32.4375 L 103.675781 49.273438 L 127.429688 49.273438 L 149.6875 32.4375 Z M 127.515625 15.65625 " fill-opacity="1" fill-rule="nonzero"/></g></svg>