<?xml version="1.0" encoding="utf-8"?>
<!-- Generator: Adobe Illustrator 16.0.0, SVG Export Plug-In . SVG Version: 6.00 Build 0)  -->
<!DOCTYPE svg PUBLIC "-//W3C//DTD SVG 1.1//EN" "http://www.w3.org/Graphics/SVG/1.1/DTD/svg11.dtd">
<svg version="1.1" id="Layer_1" xmlns="http://www.w3.org/2000/svg" xmlns:xlink="http://www.w3.org/1999/xlink" x="0px" y="0px"
	 width="128px" height="128px" viewBox="0 0 128 128" enable-background="new 0 0 128 128" xml:space="preserve">
<g>
	<g>
		<path fill="#282D33" d="M82.898,128c-0.001,0-0.001,0-0.002,0c-18.186-0.001-38.418-10.422-55.51-28.592
			C9.259,81.126-0.334,59.919,1.104,41.262l0.048-0.618l0.388-0.482c1.424-1.77,2.672-3.189,3.928-4.468
			c2.86-2.897,6.047-5.48,9.476-7.68l1.666-1.069l1.086,1.654c5.125,7.804,10.87,15.625,17.075,23.246l1.035,1.271l-1.042,1.264
			c-0.189,0.229-0.427,0.493-0.756,0.708l-7.351,4.964c-0.502,0.332-0.846,0.915-0.989,1.654c-0.237,1.234,0.115,2.682,0.942,3.873
			c2.232,3.241,11.201,13.338,16.846,19.412c5.941,5.694,15.833,14.759,19.029,17.039c0.92,0.657,1.987,1.019,3.005,1.019
			c1.05,0,1.93-0.393,2.353-1.049l1.631-2.496c1.093-1.673,2.185-3.344,3.28-5.013c0.225-0.34,0.494-0.583,0.704-0.757l1.284-1.064
			l1.277,1.073c7.48,6.282,15.179,12.115,22.881,17.335l1.592,1.078l-1.016,1.633c-2.155,3.467-4.699,6.703-7.563,9.617
			c-1.256,1.278-2.692,2.588-4.394,4.003l-0.488,0.405l-0.633,0.051C85.255,127.954,84.078,128,82.898,128z M5.049,42.185
			C3.96,59.536,13.122,79.341,30.263,96.63C46.639,114.037,65.81,123.999,82.896,124c0.001,0,0.001,0,0.002,0
			c0.858,0,1.715-0.026,2.554-0.079c1.383-1.17,2.567-2.26,3.607-3.318c2.21-2.25,4.216-4.706,5.979-7.319
			c-6.705-4.617-13.394-9.683-19.929-15.092c-0.764,1.165-1.525,2.332-2.288,3.499l-1.624,2.485
			c-1.154,1.794-3.291,2.872-5.708,2.872c-1.846,0-3.738-0.626-5.329-1.764c-3.509-2.503-13.72-11.89-19.516-17.446l-0.081-0.082
			c-5.508-5.925-14.798-16.349-17.246-19.902c-1.445-2.081-2.023-4.6-1.58-6.904c0.348-1.806,1.304-3.307,2.694-4.224l5.912-3.993
			C25,46.075,20.006,39.276,15.465,32.477c-2.561,1.786-4.958,3.807-7.147,6.023C7.275,39.562,6.226,40.744,5.049,42.185z"/>
	</g>
	<g>
		<g>
			<g>
				<path fill="#282D33" d="M71.638,77.055H45.936l-0.135-1.855c-0.019-0.256-0.395-6.368,4.912-14.284
					c2.251-3.357,6.229-6.171,10.078-8.893c4.426-3.13,9.002-6.367,9.002-9.3v-1.548c0-5.317-4.242-9.643-9.456-9.643
					c-5.219,0-9.465,4.326-9.465,9.643h-4c0-7.522,6.041-13.643,13.465-13.643c7.42,0,13.456,6.12,13.456,13.643v1.548
					c0,5.004-5.193,8.677-10.692,12.566c-3.552,2.512-7.225,5.11-9.065,7.854c-2.854,4.258-3.795,7.851-4.102,9.912h21.704V77.055z"
					/>
			</g>
			<g>
				<rect x="92.559" y="27.98" fill="#282D33" width="4" height="49.665"/>
			</g>
			<g>
				<polygon fill="#282D33" points="102.215,65.136 73.729,65.136 72.021,62.094 92.514,28.49 95.93,30.573 77.292,61.136 
					102.215,61.136 				"/>
			</g>
		</g>
	</g>
	<g>
		<g>
			<path fill="#282D33" d="M27.703,20.617l-2.847-2.811c0.471-0.477,0.946-0.946,1.427-1.403l2.756,2.899
				C28.589,19.731,28.144,20.17,27.703,20.617z"/>
		</g>
		<g>
			<path fill="#282D33" d="M112.226,100.813l-3.018-2.627l0.261-0.303l3.043,2.596L112.226,100.813z M115.048,97.295l-3.213-2.383
				c0.755-1.018,1.481-2.069,2.162-3.126l3.363,2.164C116.633,95.081,115.854,96.207,115.048,97.295z M119.444,90.457l-3.5-1.936
				c0.605-1.096,1.186-2.234,1.724-3.385l3.623,1.693C120.716,88.063,120.094,89.282,119.444,90.457z M122.891,83.09l-3.729-1.445
				c0.456-1.179,0.88-2.387,1.257-3.59l3.816,1.197C123.832,80.538,123.38,81.83,122.891,83.09z M125.322,75.331l-3.887-0.941
				c0.297-1.228,0.557-2.48,0.772-3.725l3.941,0.684C125.919,72.679,125.641,74.019,125.322,75.331z M126.712,67.32l-3.979-0.422
				c0.134-1.256,0.228-2.533,0.278-3.795l3.996,0.161C126.954,64.613,126.854,65.979,126.712,67.32z M123.04,59.298
				c-0.032-1.263-0.106-2.541-0.222-3.798l3.984-0.363c0.122,1.344,0.201,2.71,0.235,4.06L123.04,59.298z M122.35,51.725
				c-0.198-1.254-0.439-2.511-0.717-3.737l3.9-0.883c0.297,1.311,0.555,2.654,0.768,3.994L122.35,51.725z M120.672,44.307
				c-0.361-1.216-0.767-2.429-1.204-3.607l3.75-1.393c0.469,1.261,0.901,2.56,1.288,3.861L120.672,44.307z M118.025,37.18
				c-0.521-1.161-1.086-2.31-1.675-3.416l3.531-1.88c0.63,1.184,1.233,2.413,1.792,3.654L118.025,37.18z M114.452,30.469
				c-0.667-1.072-1.379-2.135-2.116-3.161l3.246-2.336c0.79,1.098,1.553,2.236,2.267,3.383L114.452,30.469z M110.01,24.298
				c-0.8-0.968-1.647-1.927-2.521-2.85l2.906-2.748c0.934,0.987,1.842,2.014,2.698,3.05L110.01,24.298z M104.786,18.772
				c-0.925-0.855-1.892-1.692-2.874-2.485l2.512-3.112c1.054,0.85,2.089,1.746,3.079,2.663L104.786,18.772z M31.792,16.851
				l-2.563-3.071c1.036-0.864,2.117-1.707,3.212-2.503l2.352,3.236C33.77,15.256,32.76,16.043,31.792,16.851z M98.877,14.003
				c-1.036-0.725-2.106-1.421-3.183-2.07l2.064-3.426c1.154,0.695,2.302,1.442,3.411,2.218L98.877,14.003z M37.943,12.387
				L35.82,8.997c1.146-0.717,2.332-1.405,3.524-2.043l1.888,3.526C40.119,11.076,39.012,11.718,37.943,12.387z M92.379,10.088
				c-1.124-0.575-2.28-1.118-3.438-1.613l1.574-3.678c1.241,0.532,2.481,1.114,3.686,1.73L92.379,10.088z M44.642,8.805
				l-1.639-3.649c1.232-0.553,2.502-1.071,3.773-1.54l1.383,3.754C46.973,7.807,45.79,8.29,44.642,8.805z M85.402,7.102
				c-1.192-0.416-2.413-0.795-3.627-1.127l1.055-3.858c1.303,0.356,2.61,0.763,3.889,1.208L85.402,7.102z M51.766,6.183
				l-1.118-3.841c1.301-0.379,2.63-0.716,3.95-1.003l0.85,3.909C54.218,5.515,52.979,5.829,51.766,6.183z M78.08,5.098
				c-1.236-0.249-2.498-0.458-3.748-0.622l0.52-3.966c1.341,0.176,2.692,0.4,4.018,0.667L78.08,5.098z M59.184,4.569l-0.577-3.958
				c1.341-0.195,2.704-0.346,4.051-0.447l0.3,3.989C61.702,4.247,60.433,4.387,59.184,4.569z M70.55,4.109
				C69.391,4.037,68.211,4,67.044,4l-0.293,0l-0.02-4l0.322,0c1.24,0,2.504,0.04,3.746,0.117L70.55,4.109z"/>
		</g>
		<g>
			<path fill="#282D33" d="M109.537,103.727l-2.852-2.805c0.439-0.447,0.871-0.898,1.293-1.356l2.941,2.711
				C110.469,102.766,110.008,103.248,109.537,103.727z"/>
		</g>
	</g>
</g>
</svg>
